# xmcd
#
# Track frame offsets:
#  150
#  13102
#  26433
#  40643
#  58495
#  72956
#  88080
#  102181
#  118679
#  129707
#  147035
#
# Disc length: 2167 seconds
#
# Revision: 1
# Processed by: cddbd v1.5.2PL0 Copyright (c) Steve Scherf et al.
# Submitted via: AltoMP3_Maker 3.0
#
DISCID=9708750b
DTITLE=Ross McGregor - Here To Forget
DYEAR=1900
DGENRE=
TTITLE0=What Was My Heart Thinking
TTITLE1=Here To Forget
TTITLE2=Who Will Buy The Wine
TTITLE3=Drinking Tequila
TTITLE4=I Forgot to Remember To Forget
TTITLE5=Driving My Life Away
TTITLE6=Change Places With Me
TTITLE7=I Can't Hang Around Here Anymore
TTITLE8=It's Hard To Keep A Secret Anymore
TTITLE9=Big Rig Wheels
TTITLE10=So Long Mama
EXTD=
EXTT0=
EXTT1=
EXTT2=
EXTT3=
EXTT4=
EXTT5=
EXTT6=
EXTT7=
EXTT8=
EXTT9=
EXTT10=
PLAYORDER=
